<svg xmlns="http://www.w3.org/2000/svg" width="512" height="512" viewBox="0 0 621.699 621.699"><path d="M527.76 101.242C478.838 37.84 397.791 0 310.867 0 223.909 0 142.86 37.863 93.961 101.299 36.666 160.289 5.022 238.515 4.873 321.718c.138 66.892 20.654 130.673 59.347 184.548 17.428 60.026 71.661 102.371 133.818 105.066 3.167 6.22 9.63 10.344 16.956 10.344 1.025 0 1.97-.104 3.167-.265l51.594-8.962a18.975 18.975 0 0 0 15.747-18.719c0-1.037-.092-2.027-.265-3.236l-47.251-272.06c-1.659-9.065-9.515-15.666-18.742-15.689-1.325 0-2.523.127-3.698.369l-51.11 8.882c-9.135 1.624-15.747 9.457-15.724 18.43 0 .115 0 .242-.023.369-32.714 13.512-59.266 38.428-74.897 69.726-8.075-25.458-12.164-51.859-12.164-78.814 0-51.237 14.675-100.562 42.482-142.86 18.361-5.99 31.274-16.127 39.015-23.81l.323-.323.299-.369c36.608-43.968 99.053-70.197 167.097-70.197 64.553-.012 125.19 24.132 162.189 64.587l.646.714c1.037 1.117 1.9 2.108 3.029 3.398 6.521 6.9 20.273 19.064 40.801 25.872 27.854 42.356 42.575 91.704 42.575 142.999 0 26.989-4.09 53.414-12.176 78.849-15.632-31.32-42.184-56.248-74.943-69.76v-.069a18.96 18.96 0 0 0-15.735-18.73l-51.353-8.938c-1.06-.219-2.2-.311-3.467-.311-9.238.023-17.095 6.658-18.719 15.781L336.462 590.3a17.79 17.79 0 0 0-.312 3.433c0 9.25 6.612 17.117 15.747 18.742l51.698 8.973c1.014.162 2.004.254 3.109.254 5.668 0 10.816-2.488 14.354-6.52l2.695.472.76-4.354c61.731-3.029 115.561-45.224 132.932-104.881 38.738-53.956 59.266-117.749 59.381-184.71-.103-83.217-31.746-161.478-89.066-220.467zM214.659 328.307l45.316 260.781-40.363 7.027-45.316-260.782 40.363-7.026zm187.463 267.808l-40.363-7.027 45.316-260.77 40.386 7.015-.253 1.371-45.086 259.411z" fill="#FFF"/></svg>