<svg xmlns="http://www.w3.org/2000/svg" width="512" height="512"><path d="M512 65.826l-76.797 10.969L446.175 0 387.76 58.413c-39.762-27.068-87.789-42.898-139.518-42.898C111.141 15.515 0 126.656 0 263.758S111.141 512 248.242 512c137.1 0 248.242-111.141 248.242-248.242 0-51.729-15.83-99.758-42.898-139.52L512 65.826zM390.864 406.379c-38.096 38.096-88.745 59.075-142.621 59.075s-104.527-20.98-142.621-59.075c-38.096-38.094-59.076-88.745-59.076-142.622s20.98-104.527 59.076-142.621C143.716 83.04 194.367 62.06 248.243 62.06c46.04 0 89.715 15.332 125.223 43.562l-55.467 55.467c-19.881-13.534-43.892-21.453-69.756-21.453-68.551 0-124.121 55.571-124.121 124.121s55.571 124.121 124.121 124.121 124.121-55.571 124.121-124.121c0-25.864-7.919-49.875-21.453-69.756l55.467-55.467c28.23 35.506 43.562 79.183 43.562 125.223-.001 53.877-20.98 104.526-59.076 142.622zM237.992 274.008a23.202 23.202 0 0 0 16.457 6.816 23.186 23.186 0 0 0 16.455-6.817l46.1-46.1a77.1 77.1 0 0 1 8.814 35.851c0 42.775-34.8 77.576-77.576 77.576s-77.576-34.8-77.576-77.576 34.8-77.576 77.576-77.576a77.065 77.065 0 0 1 35.849 8.814l-46.1 46.1c-9.088 9.089-9.088 23.824.001 32.912z" fill="#FFF"/></svg>